<svg width="27" height="22" viewBox="0 0 27 22" fill="none" xmlns="http://www.w3.org/2000/svg">
<path fill-rule="evenodd" clip-rule="evenodd" d="M6.46118 8C6.46118 7.44772 6.9089 7 7.46118 7H20.4612C21.0135 7 21.4612 7.44772 21.4612 8C21.4612 8.55229 21.0135 9 20.4612 9H7.46118C6.9089 9 6.46118 8.55229 6.46118 8Z" fill="white"/>
<path fill-rule="evenodd" clip-rule="evenodd" d="M6.46118 12C6.46118 11.4477 6.9089 11 7.46118 11H20.4612C21.0135 11 21.4612 11.4477 21.4612 12C21.4612 12.5523 21.0135 13 20.4612 13H7.46118C6.9089 13 6.46118 12.5523 6.46118 12Z" fill="white"/>
<path fill-rule="evenodd" clip-rule="evenodd" d="M1.54697 0.585787C1.92204 0.210714 2.43075 0 2.96118 0H24.9612C25.4916 0 26.0003 0.210714 26.3754 0.585787C26.7505 0.960861 26.9612 1.46957 26.9612 2V21C26.9612 21.3466 26.7817 21.6684 26.4869 21.8507C26.1921 22.0329 25.824 22.0494 25.514 21.8944L21.9612 20.118L18.4084 21.8944C18.1269 22.0352 17.7955 22.0352 17.514 21.8944L13.9612 20.118L10.4084 21.8944C10.1269 22.0352 9.7955 22.0352 9.51397 21.8944L5.96118 20.118L2.4084 21.8944C2.09841 22.0494 1.73027 22.0329 1.43545 21.8507C1.14063 21.6684 0.961182 21.3466 0.961182 21V2C0.961182 1.46957 1.1719 0.960859 1.54697 0.585787ZM24.9612 2L2.96118 2L2.96118 19.382L5.51397 18.1056C5.7955 17.9648 6.12687 17.9648 6.4084 18.1056L9.96118 19.882L13.514 18.1056C13.7955 17.9648 14.1269 17.9648 14.4084 18.1056L17.9612 19.882L21.514 18.1056C21.7955 17.9648 22.1269 17.9648 22.4084 18.1056L24.9612 19.382V2Z" fill="white"/>
</svg>
